<svg aria-hidden="true" style="width:0;height:0;position:absolute;overflow:hidden" xmlns="http://www.w3.org/2000/svg"><defs><symbol id="icon-logo-header-desktop" viewBox="0 0 86 32"><path fill="#fff" style="fill:var(--color1,#fff)" d="M17.114 7.128V3.564a.713.713 0 0 0-.713-.713h-.713V.713A.713.713 0 0 0 14.975 0c-1.01 0-2.556-.077-4.37 1.009C9.477.673 8.679.712 7.845.712a.713.713 0 0 0-.713.713V2.85h-.713a.713.713 0 0 0-.713.713v3.564a5.71 5.71 0 0 0 4.992 5.657v9.31a.713.713 0 1 0 1.426 0V19.6h1.07a3.925 3.925 0 0 0 3.922-3.92v-1.069a.713.713 0 0 0-.713-.713H14.62c-.947 0-1.817.337-2.496.898v-2.012a5.699 5.699 0 0 0 4.992-5.657zm-1.426 0a4.268 4.268 0 0 1-1.448 3.199c.014-.114.022-.231.022-.349a7.093 7.093 0 0 0-1.786-4.712 5.698 5.698 0 0 1 3.212-.99v2.851zm-1.426-5.701v1.569a6.38 6.38 0 0 0-.392.092 7.15 7.15 0 0 0-1.566-1.315 5.691 5.691 0 0 1 1.959-.346zm-5.704.712c1.417 0 2.792.517 3.862 1.505a7.06 7.06 0 0 0-1.012.635 7.099 7.099 0 0 0-2.85-1.284v-.856zM7.131 7.128V4.277a5.71 5.71 0 0 1 5.705 5.702c0 .796-.658 1.445-1.464 1.425-2.505-.062-4.241-2.051-4.241-4.276zm7.488 8.196h1.07v.356a2.498 2.498 0 0 1-2.496 2.494h-1.07v-.356a2.498 2.498 0 0 1 2.496-2.494zM25.542 10.604h-3.006v1.89h3.551v1.47h-5.462V6.035h5.473v1.476h-3.561v1.672h3.006v1.421zm4.427-1.933 1.296-2.636h2.184l-2.216 3.932 2.276 3.997h-2.206l-1.334-2.685-1.334 2.685h-2.2l2.271-3.997-2.211-3.932h2.178l1.296 2.636zm6.219 2.603v2.69h-1.911V6.035h3.164q.909 0 1.609.335t1.084.953.384 1.402q0 1.16-.83 1.854t-2.279.694h-1.22zm0-1.476h1.252q.556 0 .847-.278t.291-.784q0-.556-.3-.888t-.817-.338h-1.274v2.287zm7.406 2.696h3.327v1.47h-5.239V6.035h1.911v6.459zm10.646-2.331q0 1.16-.43 2.053t-1.223 1.375-1.805.482-1.797-.466-1.223-1.331-.46-1.988v-.447q0-1.165.427-2.056t1.226-1.375 1.816-.485q1.008 0 1.797.479t1.228 1.364.444 2.029v.365zm-1.945-.332q0-1.182-.395-1.794t-1.13-.613q-1.437 0-1.519 2.157l-.005.583q0 1.165.386 1.792t1.149.626q.724 0 1.116-.615t.398-1.77v-.365zm6.023 1.334h-1.035v2.799h-1.911V6.035h3.12q1.41 0 2.205.626t.795 1.77q0 .828-.335 1.372t-1.049.882l1.656 3.197v.082h-2.048l-1.4-2.799zm-1.035-1.476h1.209q.545 0 .819-.286t.275-.798-.277-.803-.817-.291h-1.209v2.178zm10.429.915h-3.006v1.89h3.551v1.47h-5.462V6.035h5.473v1.476h-3.562v1.672h3.006v1.421zM22.661 22.808h-1.906v-7.929h1.906v7.929zm8.098 0h-1.901l-2.81-4.934v4.934h-1.911v-7.929h1.911l2.805 4.934v-4.934h1.906v7.929zm1.355 0v-7.929h2.554q1.051 0 1.89.476t1.31 1.345.477 1.947v.365q0 1.089-.46 1.952t-1.296 1.351-1.865.493h-2.608zm1.912-6.453v4.983h.664q.822 0 1.263-.585t.441-1.74v-.343q0-1.149-.441-1.732t-1.285-.583h-.643zm12.16 2.652q0 1.16-.43 2.053t-1.223 1.375-1.805.482-1.797-.466-1.223-1.331-.46-1.988v-.447q0-1.165.427-2.056t1.225-1.375 1.816-.485q1.007 0 1.797.479t1.228 1.364.444 2.029v.365zm-1.944-.333q0-1.182-.395-1.794t-1.13-.613q-1.438 0-1.519 2.157l-.005.583q0 1.165.387 1.792t1.149.626q.724 0 1.116-.615t.398-1.77v-.365zm9.698 4.134h-1.901l-2.81-4.934v4.934h-1.911v-7.929h1.911l2.805 4.934v-4.934h1.906v7.929zm6.273-3.36h-3.006v1.89h3.551v1.47h-5.462v-7.929h5.473v1.476h-3.561v1.672h3.006v1.421zm5.56 1.252q0-.419-.296-.653t-1.043-.485-1.219-.485q-1.541-.757-1.541-2.08 0-.659.384-1.163t1.086-.784 1.579-.28q.855 0 1.533.305t1.054.869.376 1.288H65.78q0-.485-.297-.752t-.803-.267q-.512 0-.809.226t-.297.575q0 .305.327.553t1.149.512 1.351.569q1.285.741 1.285 2.042 0 1.04-.784 1.634t-2.151.594q-.964 0-1.745-.346t-1.176-.948-.395-1.386h1.917q0 .637.33.939t1.07.302q.474 0 .748-.204t.275-.575zm5.075 2.108h-1.906v-7.929h1.906v7.929zm6.077-1.482h-2.62l-.458 1.481h-2.042l2.908-7.929h1.797l2.93 7.929h-2.053l-.463-1.481zm-2.162-1.475h1.705l-.855-2.75-.849 2.75z"/><path style="fill:var(--color2,#000)" opacity=".7" d="M8.848 16.757h77.307v9.309H8.848v-9.309z"/></symbol><symbol id="icon-logo-header-mobile" viewBox="0 0 80 32"><path fill="#fff" style="fill:var(--color1,#fff)" d="M17.114 7.128V3.565a.713.713 0 0 0-.713-.713h-.713V.714a.713.713 0 0 0-.713-.713c-1.01 0-2.556-.077-4.37 1.009C9.477.674 8.679.713 7.845.713a.713.713 0 0 0-.713.713v1.425h-.713a.713.713 0 0 0-.713.713v3.564a5.71 5.71 0 0 0 4.992 5.657v9.31a.713.713 0 1 0 1.426 0v-2.494h1.07a3.926 3.926 0 0 0 3.922-3.92v-1.069a.713.713 0 0 0-.713-.713H14.62c-.947 0-1.817.337-2.496.898v-2.012a5.699 5.699 0 0 0 4.992-5.657zm-1.426 0a4.268 4.268 0 0 1-1.448 3.199c.014-.114.022-.231.022-.349a7.093 7.093 0 0 0-1.786-4.712 5.698 5.698 0 0 1 3.212-.99v2.851zm-1.426-5.701v1.569a6.38 6.38 0 0 0-.392.092 7.15 7.15 0 0 0-1.566-1.315 5.691 5.691 0 0 1 1.959-.346zm-5.705.712c1.417 0 2.792.517 3.862 1.505a7.06 7.06 0 0 0-1.012.635 7.099 7.099 0 0 0-2.85-1.284v-.856zM7.131 7.128V4.277a5.71 5.71 0 0 1 5.705 5.702c0 .796-.658 1.445-1.464 1.425-2.505-.062-4.241-2.051-4.241-4.276zm7.488 8.196h1.07v.356a2.498 2.498 0 0 1-2.496 2.494h-1.07v-.356a2.499 2.499 0 0 1 2.496-2.495z"/><path style="fill:var(--color2,#000)" d="M25.542 10.788h-3.006v1.89h3.551v1.47h-5.462V6.219h5.473v1.476h-3.561v1.672h3.006v1.421zm4.427-1.934 1.296-2.636h2.184l-2.216 3.932 2.276 3.997h-2.206l-1.334-2.685-1.334 2.685h-2.2l2.271-3.997-2.211-3.932h2.178l1.296 2.636zm6.219 2.603v2.69h-1.911V6.218h3.164q.909 0 1.609.335t1.084.953.384 1.402q0 1.16-.83 1.854t-2.279.694h-1.22zm0-1.475h1.253q.555 0 .847-.278t.291-.784q0-.555-.3-.888t-.817-.338h-1.274v2.287zm7.405 2.695h3.327v1.47h-5.239V6.218h1.911v6.459zm10.646-2.33q0 1.16-.43 2.053t-1.223 1.375-1.805.482-1.797-.466-1.223-1.331-.46-1.988v-.447q0-1.165.427-2.056t1.225-1.375 1.816-.485q1.007 0 1.797.479t1.228 1.364.444 2.028v.365zm-1.944-.333q0-1.182-.395-1.794t-1.13-.613q-1.438 0-1.519 2.157l-.005.583q0 1.165.387 1.792t1.149.626q.724 0 1.116-.615t.398-1.77v-.365zm6.023 1.334h-1.035v2.799h-1.911V6.218h3.12q1.411 0 2.206.626t.795 1.77q0 .828-.334 1.372t-1.048.882l1.655 3.197v.082h-2.047l-1.399-2.799zm-1.035-1.475h1.209q.545 0 .82-.286t.275-.798-.278-.803-.817-.291h-1.209v2.178zm10.428.915h-3.006v1.89h3.551v1.47h-5.462V6.219h5.473v1.476h-3.561v1.672h3.006v1.421zm-45.05 12.457h-1.906v-7.929h1.906v7.929zm8.098 0h-1.901l-2.81-4.934v4.934h-1.911v-7.929h1.911l2.805 4.934v-4.934h1.906v7.929zm1.355 0v-7.929h2.554q1.051 0 1.89.477t1.31 1.345.476 1.947v.365q0 1.089-.46 1.952t-1.296 1.351-1.865.493h-2.608zm1.912-6.453v4.983h.664q.822 0 1.263-.585t.441-1.74v-.343q0-1.149-.441-1.732t-1.285-.583h-.643zm12.16 2.652q0 1.16-.43 2.053t-1.223 1.375-1.805.482-1.797-.466-1.223-1.331-.46-1.988v-.447q0-1.165.427-2.056t1.225-1.375 1.816-.485q1.007 0 1.797.479t1.228 1.364.444 2.029v.365zm-1.945-.333q0-1.182-.395-1.794t-1.13-.613q-1.438 0-1.519 2.157l-.005.583q0 1.165.387 1.792t1.149.626q.724 0 1.116-.615t.398-1.77v-.365zm9.699 4.134h-1.9l-2.81-4.934v4.934h-1.911v-7.929h1.911l2.805 4.934v-4.934h1.906v7.929zm6.273-3.36h-3.006v1.89h3.551v1.47h-5.462v-7.929h5.473v1.476h-3.561v1.672h3.006v1.421zm5.56 1.252q0-.419-.297-.653t-1.043-.485-1.22-.485q-1.541-.757-1.541-2.08 0-.659.384-1.163t1.086-.784 1.58-.28q.855 0 1.533.305t1.054.869.376 1.288h-1.906q0-.485-.297-.751t-.803-.267q-.512 0-.809.226t-.297.575q0 .305.327.553t1.149.512 1.351.569q1.285.741 1.285 2.042 0 1.04-.784 1.634t-2.151.594q-.964 0-1.745-.346t-1.176-.948-.395-1.386h1.917q0 .637.33.939t1.07.302q.474 0 .749-.204t.275-.575zm5.075 2.108h-1.906v-7.929h1.906v7.929zm6.077-1.481h-2.619l-.458 1.481h-2.042l2.908-7.929h1.797l2.93 7.929h-2.053l-.463-1.481zm-2.162-1.476h1.704l-.855-2.75-.849 2.75z"/></symbol><symbol id="icon-logo-footer" viewBox="0 0 85 32"><path fill="#fff" style="fill:var(--color1,#fff)" d="M18.616 7.758V3.88a.776.776 0 0 0-.776-.776h-.776V.777a.775.775 0 0 0-.776-.776c-1.098 0-2.78-.084-4.754 1.098C10.307.734 9.439.776 8.531.776a.776.776 0 0 0-.776.776v1.551h-.776a.776.776 0 0 0-.776.776v3.878a6.213 6.213 0 0 0 5.43 6.156v10.132a.776.776 0 0 0 1.552 0V21.33h1.163a4.27 4.27 0 0 0 4.266-4.266v-1.163a.776.776 0 0 0-.776-.776h-1.939c-1.03 0-1.977.367-2.715.978v-2.19a6.2 6.2 0 0 0 5.429-6.156zm-1.551 0c0 1.38-.611 2.627-1.575 3.482.015-.125.024-.251.024-.379 0-1.964-.734-3.76-1.942-5.128a6.192 6.192 0 0 1 3.494-1.077v3.103zm-1.552-6.205v1.708a7.77 7.77 0 0 0-.427.099 7.761 7.761 0 0 0-1.704-1.431 6.185 6.185 0 0 1 2.131-.376zm-6.205.775c1.541 0 3.037.563 4.201 1.638-.384.198-.752.43-1.101.692a7.724 7.724 0 0 0-3.1-1.397v-.932zm-1.551 5.43V4.655a6.213 6.213 0 0 1 6.205 6.205c0 .866-.716 1.573-1.592 1.55-2.725-.068-4.613-2.232-4.613-4.653zm8.144 8.92h1.163v.388a2.718 2.718 0 0 1-2.715 2.715h-1.163v-.388a2.718 2.718 0 0 1 2.715-2.715z"/><path fill="#dd2242" style="fill:var(--color3,#dd2242)" d="M28.156 10.114h-3.143v1.976h3.713v1.537h-5.711V5.336h5.723v1.543h-3.724v1.748h3.143v1.486zm4.629-2.021 1.355-2.756h2.283l-2.318 4.111 2.38 4.179h-2.306l-1.395-2.807-1.395 2.807h-2.3l2.374-4.179-2.312-4.111h2.278l1.355 2.756zm6.503 2.722v2.813h-1.999V5.337h3.308q.951 0 1.683.35t1.133.997.401 1.466q0 1.213-.868 1.939t-2.383.726h-1.276zm0-1.543h1.31q.581 0 .885-.29t.305-.82q0-.581-.313-.928t-.854-.353h-1.332v2.392zm7.744 2.818h3.479v1.537h-5.478V5.336h1.999v6.753zm11.131-2.437q0 1.213-.45 2.147t-1.278 1.438-1.888.504-1.879-.487q-.82-.487-1.279-1.392t-.481-2.078v-.467q0-1.219.447-2.15t1.281-1.438 1.899-.507q1.053 0 1.879.501t1.284 1.426.464 2.121v.381zm-2.032-.347q0-1.236-.413-1.876t-1.182-.641q-1.503 0-1.589 2.255l-.006.609q0 1.219.404 1.873t1.201.655q.757 0 1.168-.643t.416-1.851v-.381zm6.297 1.395h-1.082v2.927h-1.999V5.337h3.263q1.475 0 2.306.655t.831 1.851q0 .866-.35 1.435t-1.096.922l1.731 3.342v.085h-2.141L62.427 10.7zm-1.082-1.543h1.264q.569 0 .857-.299t.288-.834-.291-.84-.854-.305h-1.264v2.278zm10.904.956h-3.143v1.976h3.713v1.537h-5.711V5.336h5.723v1.543h-3.724v1.748h3.143v1.486z"/><path fill="#fff" style="fill:var(--color1,#fff)" d="M25.144 24.335h-1.993v-8.291h1.993v8.291zm8.467 0h-1.987l-2.938-5.159v5.159h-1.999v-8.291h1.999l2.933 5.159v-5.159h1.993v8.291zm1.418 0v-8.291H37.7q1.099 0 1.976.498t1.369 1.406.498 2.036v.381q0 1.139-.481 2.041t-1.355 1.412-1.95.515H35.03zm1.998-6.748v5.21h.695q.86 0 1.321-.612t.461-1.819v-.359q0-1.201-.461-1.811t-1.344-.609h-.672zm12.715 2.773q0 1.213-.45 2.147t-1.278 1.438-1.888.504-1.879-.487-1.278-1.392-.481-2.078v-.467q0-1.219.447-2.15t1.281-1.438 1.899-.507q1.053 0 1.879.501t1.284 1.426.464 2.121v.381zm-2.033-.347q0-1.236-.413-1.876t-1.181-.641q-1.503 0-1.589 2.255l-.006.609q0 1.219.404 1.873t1.201.655q.757 0 1.167-.643t.416-1.851v-.381zm10.141 4.322h-1.987l-2.938-5.159v5.159h-1.999v-8.291h1.999l2.932 5.159v-5.159h1.993v8.291zm6.559-3.513h-3.143v1.976h3.713v1.537h-5.711v-8.291h5.723v1.543h-3.724v1.748h3.143v1.486zm5.814 1.309q0-.438-.311-.683t-1.09-.507-1.276-.507q-1.611-.791-1.611-2.175 0-.689.402-1.216t1.136-.82 1.651-.293q.894 0 1.603.319t1.102.908.393 1.347h-1.993q0-.507-.311-.786t-.84-.279q-.535 0-.845.236t-.311.601q0 .319.342.578t1.202.535 1.412.595q1.344.774 1.344 2.135 0 1.088-.82 1.708t-2.25.621q-1.007 0-1.825-.362t-1.23-.991-.413-1.449h2.005q0 .666.344.982t1.119.316q.495 0 .783-.213t.288-.601zm5.306 2.204h-1.993v-8.291h1.993v8.291zm6.355-1.549h-2.739l-.478 1.549h-2.135l3.04-8.291h1.879l3.063 8.291h-2.146l-.484-1.549zm-2.26-1.543h1.782l-.894-2.876-.888 2.876z"/></symbol><symbol id="icon-facebook" viewBox="0 0 32 32"><path d="M17.943 25.333v-9h2.915l.476-4h-3.391v-1.948c0-1.03.028-2.052 1.563-2.052h1.555V5.474c0-.044-1.336-.141-2.687-.141-2.822 0-4.589 1.658-4.589 4.701v2.299h-3.118v4h3.118v9h4.158z"/></symbol><symbol id="icon-linkedin" viewBox="0 0 32 32"><path d="M7.334 8a2 2 0 1 1 0-4 2 2 0 0 1 0 4zm15.23 17.333h4.103v-9.012c0-3.812-2.142-5.655-5.043-5.655-2.9 0-4.188 2.35-4.188 2.35v-1.56h-4.103v13.876h4.103v-7.471c0-2.001 1.006-3.193 2.701-3.193 1.558 0 2.427 1.143 2.427 3.193v7.471zm-13.231 0h-4V12h4v13.333z"/></symbol><symbol id="icon-google" viewBox="0 0 32 32"><path d="M25.167 14.137h-8.97c0 .934 0 2.798-.006 3.732h5.198c-.199.932-.905 2.238-1.903 2.896-.001-.001-.002.005-.004.005-1.327.875-3.077 1.074-4.377.813-2.038-.404-3.65-1.881-4.305-3.759.004-.003.007-.029.009-.03-.41-1.164-.41-2.723 0-3.656h-.001c.528-1.715 2.189-3.279 4.229-3.707 1.641-.348 3.493.029 4.855 1.303.181-.177 2.506-2.448 2.681-2.633-4.653-4.214-12.102-2.73-14.89 2.71h-.001l-.005.01a9.115 9.115 0 0 0 .01 8.367l-.01.007a9.503 9.503 0 0 0 6.048 4.822c2.81.737 6.387.233 8.783-1.934l.003.003c2.03-1.828 3.294-4.943 2.655-8.948z"/></symbol><symbol id="icon-2" viewBox="0 0 47 32"><path d="M21.697 18.854q0 6.306-2.832 9.726T10.881 32q-5.194 0-8.037-3.442T.001 18.853v-5.686q0-6.306 2.832-9.726t8.005-3.42 8.016 3.442 2.843 9.726v5.665zm-7.204-6.606q0-3.356-.876-5.013t-2.779-1.657q-1.86 0-2.704 1.539t-.909 4.66v7.952q0 3.484.876 5.098t2.779 1.614q1.838 0 2.715-1.571t.898-4.927v-7.695zm32.663 19.325H25.438V26.87l10.004-10.517q3.698-4.211 3.698-6.691 0-2.009-.876-3.057T35.72 5.558q-1.646 0-2.672 1.4t-1.026 3.495h-7.225q0-2.864 1.432-5.291t3.976-3.794T35.891 0q5.045 0 7.77 2.33t2.725 6.691q0 1.838-.684 3.58t-2.127 3.655-4.649 5.12l-4.019 4.639h12.249v5.558z"/></symbol><symbol id="icon-01" viewBox="0 0 41 32"><path d="M21.711 18.845q0 6.31-2.834 9.733T10.888 32q-5.198 0-8.043-3.444T0 18.845v-5.69q0-6.31 2.834-9.733T10.845 0t8.021 3.444 2.845 9.733v5.668zm-7.208-6.61q0-3.358-.877-5.016t-2.781-1.658q-1.861 0-2.706 1.54t-.909 4.663v7.957q0 3.487.877 5.102t2.781 1.615q1.84 0 2.717-1.572t.898-4.93v-7.701zm26.93 19.337h-7.23V8.556l-7.102 2.075V5.155L40.769.428h.663v31.144z"/></symbol><symbol id="icon-3" viewBox="0 0 47 32"><path d="M21.697 18.854q0 6.306-2.832 9.726T10.881 32q-5.194 0-8.037-3.442T.001 18.853v-5.686q0-6.306 2.832-9.726t8.005-3.42 8.016 3.442 2.843 9.726v5.665zm-7.204-6.606q0-3.356-.876-5.013t-2.779-1.657q-1.86 0-2.704 1.539t-.909 4.66v7.952q0 3.484.876 5.098t2.779 1.614q1.838 0 2.715-1.571t.898-4.927v-7.695zm17.528.749h3.399q4.04 0 4.04-3.955 0-1.539-.962-2.512t-2.715-.973q-1.432 0-2.49.834t-1.058 2.073h-7.204q0-2.458 1.368-4.382t3.794-3.003T35.526 0q5.194 0 8.166 2.373t2.971 6.52q0 2.009-1.229 3.794t-3.581 2.896q2.48.898 3.891 2.725t1.411 4.521q0 4.168-3.206 6.669t-8.422 2.501q-3.057 0-5.675-1.165t-3.965-3.228-1.347-4.692h7.247q0 1.432 1.154 2.48t2.843 1.047q1.902 0 3.035-1.058t1.133-2.704q0-2.351-1.176-3.335t-3.249-.983h-3.506v-5.365z"/></symbol><symbol id="icon-search" viewBox="0 0 32 32"><path d="M19.5 18h-.79l-.28-.27A6.471 6.471 0 0 0 20 13.5a6.5 6.5 0 1 0-6.5 6.5c1.61 0 3.09-.59 4.23-1.57l.27.28v.79l5 4.99L24.49 23l-4.99-5zm-6 0C11.01 18 9 15.99 9 13.5S11.01 9 13.5 9s4.5 2.01 4.5 4.5-2.01 4.5-4.5 4.5z"/></symbol><symbol id="icon-menu" viewBox="0 0 32 32"><path d="M7.002 22h18.009v-2H7.002v2zm0-5h18.009v-2H7.002v2zm0-7v2h18.009v-2H7.002z"/></symbol></defs></svg>