<svg aria-hidden="true" style="position: absolute; width: 0; height: 0; overflow: hidden;" version="1.1" xmlns="http://www.w3.org/2000/svg" xmlns:xlink="http://www.w3.org/1999/xlink">
<defs>
<symbol id="icon-left" viewBox="0 0 20 32">
<path d="M8.098 16.186l9.999 9.999c1.302 1.302 1.302 3.412 0 4.714s-3.412 1.302-4.714 0l-12.406-12.406c-1.302-1.302-1.302-3.412 0-4.714 0.167-0.167 0.347-0.313 0.538-0.437l12.365-12.365c1.302-1.302 3.412-1.302 4.714 0s1.302 3.412 0 4.714l-10.496 10.495z"></path>
</symbol>
<symbol id="icon-right" viewBox="0 0 20 32">
<path d="M11.472 16.186l-9.999 9.999c-1.302 1.302-1.302 3.412 0 4.714s3.412 1.302 4.714 0l12.406-12.406c1.302-1.302 1.302-3.412 0-4.714-0.167-0.167-0.347-0.313-0.538-0.437l-12.365-12.365c-1.302-1.302-3.412-1.302-4.714 0s-1.302 3.412 0 4.714l10.495 10.495z"></path>
<symbol id="icon-logo-header-desktop" viewBox="0 0 86 32">
<path fill="#fff" style="fill: var(--color1, #fff)" d="M17.114 7.128v-3.564c0-0.394-0.319-0.713-0.713-0.713h-0.713v-2.138c0-0.394-0.319-0.713-0.713-0.713-1.010 0-2.556-0.077-4.37 1.009-1.128-0.336-1.926-0.297-2.76-0.297-0.394 0-0.713 0.319-0.713 0.713v1.425h-0.713c-0.394 0-0.713 0.319-0.713 0.713v3.564c0 2.903 2.181 5.305 4.992 5.657v9.31c0 0.394 0.319 0.713 0.713 0.713s0.713-0.319 0.713-0.713v-2.494h1.070c2.163 0 3.922-1.758 3.922-3.92v-1.069c0-0.394-0.319-0.713-0.713-0.713h-1.783c-0.947 0-1.817 0.337-2.496 0.898v-2.012c2.806-0.347 4.992-2.738 4.992-5.657zM15.688 7.128c0 1.268-0.561 2.414-1.448 3.199 0.014-0.114 0.022-0.231 0.022-0.349 0-1.805-0.675-3.455-1.786-4.712 0.942-0.642 2.058-0.99 3.212-0.99v2.851zM14.262 1.427v1.569c-0.132 0.027-0.263 0.057-0.392 0.092-0.463-0.518-0.99-0.958-1.566-1.315 0.623-0.228 1.284-0.346 1.959-0.346zM8.558 2.139c1.417 0 2.792 0.517 3.862 1.505-0.353 0.182-0.692 0.394-1.012 0.635-0.829-0.623-1.798-1.070-2.85-1.284v-0.856zM7.131 7.128v-2.851c3.146 0 5.705 2.558 5.705 5.702 0 0.796-0.658 1.445-1.464 1.425-2.505-0.062-4.241-2.051-4.241-4.276zM14.619 15.324h1.070v0.356c0 1.375-1.12 2.494-2.496 2.494h-1.070v-0.356c0-1.375 1.12-2.494 2.496-2.494z"></path>
<path fill="#fff" style="fill: var(--color1, #fff)" d="M25.542 10.604h-3.006v1.89h3.551v1.47h-5.462v-7.929h5.473v1.476h-3.561v1.672h3.006v1.421zM29.969 8.671l1.296-2.636h2.184l-2.216 3.932 2.276 3.997h-2.206l-1.334-2.685-1.334 2.685h-2.2l2.271-3.997-2.211-3.932h2.178l1.296 2.636zM36.188 11.274v2.69h-1.911v-7.929h3.164q0.909 0 1.609 0.335t1.084 0.953 0.384 1.402q0 1.16-0.83 1.854t-2.279 0.694h-1.22zM36.188 9.798h1.252q0.556 0 0.847-0.278t0.291-0.784q0-0.556-0.3-0.888t-0.817-0.338h-1.274v2.287zM43.594 12.494h3.327v1.47h-5.239v-7.929h1.911v6.459zM54.24 10.163q0 1.16-0.43 2.053t-1.223 1.375-1.805 0.482-1.797-0.466-1.223-1.331-0.46-1.988v-0.447q0-1.165 0.427-2.056t1.226-1.375 1.816-0.485q1.008 0 1.797 0.479t1.228 1.364 0.444 2.029v0.365zM52.295 9.831q0-1.182-0.395-1.794t-1.13-0.613q-1.437 0-1.519 2.157l-0.005 0.583q0 1.165 0.386 1.792t1.149 0.626q0.724 0 1.116-0.615t0.398-1.77v-0.365zM58.318 11.165h-1.035v2.799h-1.911v-7.929h3.12q1.41 0 2.205 0.626t0.795 1.77q0 0.828-0.335 1.372t-1.049 0.882l1.656 3.197v0.082h-2.048l-1.4-2.799zM57.283 9.689h1.209q0.545 0 0.819-0.286t0.275-0.798-0.277-0.803-0.817-0.291h-1.209v2.178zM67.712 10.604h-3.006v1.89h3.551v1.47h-5.462v-7.929h5.473v1.476h-3.562v1.672h3.006v1.421zM22.661 22.808h-1.906v-7.929h1.906v7.929zM30.759 22.808h-1.901l-2.81-4.934v4.934h-1.911v-7.929h1.911l2.805 4.934v-4.934h1.906v7.929zM32.114 22.808v-7.929h2.554q1.051 0 1.89 0.476t1.31 1.345 0.477 1.947v0.365q0 1.089-0.46 1.952t-1.296 1.351-1.865 0.493h-2.608zM34.026 16.355v4.983h0.664q0.822 0 1.263-0.585t0.441-1.74v-0.343q0-1.149-0.441-1.732t-1.285-0.583h-0.643zM46.186 19.007q0 1.16-0.43 2.053t-1.223 1.375-1.805 0.482-1.797-0.466-1.223-1.331-0.46-1.988v-0.447q0-1.165 0.427-2.056t1.225-1.375 1.816-0.485q1.007 0 1.797 0.479t1.228 1.364 0.444 2.029v0.365zM44.242 18.674q0-1.182-0.395-1.794t-1.13-0.613q-1.438 0-1.519 2.157l-0.005 0.583q0 1.165 0.387 1.792t1.149 0.626q0.724 0 1.116-0.615t0.398-1.77v-0.365zM53.94 22.808h-1.901l-2.81-4.934v4.934h-1.911v-7.929h1.911l2.805 4.934v-4.934h1.906v7.929zM60.213 19.448h-3.006v1.89h3.551v1.47h-5.462v-7.929h5.473v1.476h-3.561v1.672h3.006v1.421zM65.773 20.7q0-0.419-0.296-0.653t-1.043-0.485-1.219-0.485q-1.541-0.757-1.541-2.080 0-0.659 0.384-1.163t1.086-0.784 1.579-0.28q0.855 0 1.533 0.305t1.054 0.869 0.376 1.288h-1.906q0-0.485-0.297-0.752t-0.803-0.267q-0.512 0-0.809 0.226t-0.297 0.575q0 0.305 0.327 0.553t1.149 0.512 1.351 0.569q1.285 0.741 1.285 2.042 0 1.040-0.784 1.634t-2.151 0.594q-0.964 0-1.745-0.346t-1.176-0.948-0.395-1.386h1.917q0 0.637 0.33 0.939t1.070 0.302q0.474 0 0.748-0.204t0.275-0.575zM70.848 22.808h-1.906v-7.929h1.906v7.929zM76.925 21.326h-2.62l-0.458 1.481h-2.042l2.908-7.929h1.797l2.93 7.929h-2.053l-0.463-1.481zM74.763 19.851h1.705l-0.855-2.75-0.849 2.75z"></path>
<path fill="#000" style="fill: var(--color2, #000)" opacity="0.7" d="M8.848 16.757h77.307v9.309h-77.307v-9.309z"></path>
</symbol>
<symbol id="icon-play" viewBox="0 0 32 32">
<path fill="#fff" style="fill: var(--color1, #fff)" d="M21.736 16c0 3.279-2.613 5.937-5.836 5.937s-5.836-2.658-5.836-5.937c0-3.279 2.613-5.937 5.836-5.937s5.836 2.658 5.836 5.937z"></path>
<path fill="#000" style="fill: var(--color2, #000)" d="M14.692 14.105v3.992l3.044-1.996-3.044-1.996z"></path>
</symbol>
<symbol id="icon-logo-header-mobile" viewBox="0 0 80 32">
<path fill="#fff" style="fill: var(--color1, #fff)" d="M17.114 7.128v-3.563c0-0.394-0.319-0.713-0.713-0.713h-0.713v-2.138c0-0.394-0.319-0.713-0.713-0.713-1.010 0-2.556-0.077-4.37 1.009-1.128-0.336-1.926-0.297-2.76-0.297-0.394 0-0.713 0.319-0.713 0.713v1.425h-0.713c-0.394 0-0.713 0.319-0.713 0.713v3.564c0 2.903 2.181 5.305 4.992 5.657v9.31c0 0.394 0.319 0.713 0.713 0.713s0.713-0.319 0.713-0.713v-2.494h1.070c2.162 0 3.922-1.758 3.922-3.92v-1.069c0-0.394-0.319-0.713-0.713-0.713h-1.783c-0.947 0-1.817 0.337-2.496 0.898v-2.012c2.806-0.347 4.992-2.738 4.992-5.657zM15.688 7.128c0 1.268-0.561 2.414-1.448 3.199 0.014-0.114 0.022-0.231 0.022-0.349 0-1.805-0.675-3.455-1.786-4.712 0.942-0.642 2.058-0.99 3.212-0.99v2.851zM14.262 1.427v1.569c-0.132 0.027-0.263 0.057-0.392 0.092-0.463-0.518-0.99-0.958-1.566-1.315 0.623-0.228 1.284-0.346 1.959-0.346zM8.557 2.139c1.417 0 2.792 0.517 3.862 1.505-0.353 0.182-0.692 0.394-1.012 0.635-0.829-0.623-1.798-1.070-2.85-1.284v-0.856zM7.131 7.128v-2.851c3.146 0 5.705 2.558 5.705 5.702 0 0.796-0.658 1.445-1.464 1.425-2.505-0.062-4.241-2.051-4.241-4.276zM14.619 15.324h1.070v0.356c0 1.375-1.12 2.494-2.496 2.494h-1.070v-0.356c0-1.375 1.12-2.495 2.496-2.495z"></path>
<path fill="#000" style="fill: var(--color2, #000)" d="M25.542 10.788h-3.006v1.89h3.551v1.47h-5.462v-7.929h5.473v1.476h-3.561v1.672h3.006v1.421zM29.969 8.854l1.296-2.636h2.184l-2.216 3.932 2.276 3.997h-2.206l-1.334-2.685-1.334 2.685h-2.2l2.271-3.997-2.211-3.932h2.178l1.296 2.636zM36.188 11.457v2.69h-1.911v-7.929h3.164q0.909 0 1.609 0.335t1.084 0.953 0.384 1.402q0 1.16-0.83 1.854t-2.279 0.694h-1.22zM36.188 9.982h1.253q0.555 0 0.847-0.278t0.291-0.784q0-0.555-0.3-0.888t-0.817-0.338h-1.274v2.287zM43.593 12.677h3.327v1.47h-5.239v-7.929h1.911v6.459zM54.239 10.347q0 1.16-0.43 2.053t-1.223 1.375-1.805 0.482-1.797-0.466-1.223-1.331-0.46-1.988v-0.447q0-1.165 0.427-2.056t1.225-1.375 1.816-0.485q1.007 0 1.797 0.479t1.228 1.364 0.444 2.028v0.365zM52.295 10.014q0-1.182-0.395-1.794t-1.13-0.613q-1.438 0-1.519 2.157l-0.005 0.583q0 1.165 0.387 1.792t1.149 0.626q0.724 0 1.116-0.615t0.398-1.77v-0.365zM58.318 11.348h-1.035v2.799h-1.911v-7.929h3.12q1.411 0 2.206 0.626t0.795 1.77q0 0.828-0.334 1.372t-1.048 0.882l1.655 3.197v0.082h-2.047l-1.399-2.799zM57.283 9.873h1.209q0.545 0 0.82-0.286t0.275-0.798-0.278-0.803-0.817-0.291h-1.209v2.178zM67.711 10.788h-3.006v1.89h3.551v1.47h-5.462v-7.929h5.473v1.476h-3.561v1.672h3.006v1.421zM22.661 23.245h-1.906v-7.929h1.906v7.929zM30.759 23.245h-1.901l-2.81-4.934v4.934h-1.911v-7.929h1.911l2.805 4.934v-4.934h1.906v7.929zM32.114 23.245v-7.929h2.554q1.051 0 1.89 0.477t1.31 1.345 0.476 1.947v0.365q0 1.089-0.46 1.952t-1.296 1.351-1.865 0.493h-2.608zM34.026 16.792v4.983h0.664q0.822 0 1.263-0.585t0.441-1.74v-0.343q0-1.149-0.441-1.732t-1.285-0.583h-0.643zM46.186 19.444q0 1.16-0.43 2.053t-1.223 1.375-1.805 0.482-1.797-0.466-1.223-1.331-0.46-1.988v-0.447q0-1.165 0.427-2.056t1.225-1.375 1.816-0.485q1.007 0 1.797 0.479t1.228 1.364 0.444 2.029v0.365zM44.241 19.111q0-1.182-0.395-1.794t-1.13-0.613q-1.438 0-1.519 2.157l-0.005 0.583q0 1.165 0.387 1.792t1.149 0.626q0.724 0 1.116-0.615t0.398-1.77v-0.365zM53.94 23.245h-1.9l-2.81-4.934v4.934h-1.911v-7.929h1.911l2.805 4.934v-4.934h1.906v7.929zM60.213 19.885h-3.006v1.89h3.551v1.47h-5.462v-7.929h5.473v1.476h-3.561v1.672h3.006v1.421zM65.773 21.137q0-0.419-0.297-0.653t-1.043-0.485-1.22-0.485q-1.541-0.757-1.541-2.080 0-0.659 0.384-1.163t1.086-0.784 1.58-0.28q0.855 0 1.533 0.305t1.054 0.869 0.376 1.288h-1.906q0-0.485-0.297-0.751t-0.803-0.267q-0.512 0-0.809 0.226t-0.297 0.575q0 0.305 0.327 0.553t1.149 0.512 1.351 0.569q1.285 0.741 1.285 2.042 0 1.040-0.784 1.634t-2.151 0.594q-0.964 0-1.745-0.346t-1.176-0.948-0.395-1.386h1.917q0 0.637 0.33 0.939t1.070 0.302q0.474 0 0.749-0.204t0.275-0.575zM70.848 23.245h-1.906v-7.929h1.906v7.929zM76.925 21.764h-2.619l-0.458 1.481h-2.042l2.908-7.929h1.797l2.93 7.929h-2.053l-0.463-1.481zM74.763 20.288h1.704l-0.855-2.75-0.849 2.75z"></path>
</symbol>
<symbol id="icon-pos-absolute" viewBox="0 0 32 32">
<path fill="#dd2242" style="fill: var(--color1, #dd2242)" d="M29.419 14.194c0 7.411-6.008 13.419-13.419 13.419s-13.419-6.008-13.419-13.419c0-7.411 6.008-13.419 13.419-13.419s13.419 6.008 13.419 13.419z"></path>
<path fill="#fff" style="fill: var(--color2, #fff)" d="M20.721 15.646c0.266 0.266 0.266 0.697 0 0.963s-0.697 0.266-0.963 0l-3.722-3.722-3.777 3.777c-0.266 0.266-0.697 0.266-0.963 0s-0.266-0.697 0-0.963l4.092-4.092c0.135-0.136 0.314-0.202 0.491-0.199 0.248-0.106 0.547-0.058 0.75 0.144l4.092 4.092z"></path>
</symbol>
<symbol id="icon-linkedin" viewBox="0 0 32 32">
<path d="M26.329 24.715h-3.973v-7.235c0-1.985-0.841-3.092-2.35-3.092-1.642 0-2.616 1.154-2.616 3.092v7.235h-3.973v-13.438h3.973v1.511c0 0 1.247-2.276 4.055-2.276 2.81 0 4.884 1.784 4.884 5.476 0 3.691 0 8.726 0 8.726zM7.608 7.93c-1.070 0-1.937-0.867-1.937-1.937s0.867-1.936 1.937-1.936c1.069 0 1.936 0.867 1.936 1.936s-0.867 1.937-1.936 1.937zM5.671 24.715h3.873v-12.911h-3.873v12.911z"></path>
</symbol>
<symbol id="icon-google" viewBox="0 0 32 32">
<path d="M25.269 13.873h-8.686c0 0.903 0 2.71-0.006 3.613h5.033c-0.193 0.903-0.877 2.168-1.843 2.805-0.001-0.001-0.002 0.005-0.004 0.005-1.285 0.848-2.98 1.041-4.239 0.788-1.973-0.392-3.534-1.823-4.168-3.64 0.004-0.003 0.007-0.028 0.009-0.030-0.397-1.127-0.397-2.637 0-3.54h-0.001c0.511-1.66 2.12-3.175 4.096-3.59 1.589-0.337 3.382 0.028 4.701 1.262 0.175-0.172 2.427-2.37 2.596-2.549-4.505-4.080-11.719-2.645-14.418 2.624h-0.001c0 0 0.001 0-0.005 0.010-1.335 2.588-1.28 5.637 0.009 8.102-0.004 0.003-0.006 0.005-0.009 0.007 1.168 2.267 3.295 4.006 5.856 4.668 2.721 0.714 6.185 0.226 8.505-1.872 0.001 0.001 0.002 0.002 0.003 0.003 1.966-1.77 3.189-4.787 2.571-8.664z"></path>
</symbol>
<symbol id="icon-facebook" viewBox="0 0 32 32">
<path d="M17.489 24.716v-8.715h2.822l0.461-3.873h-3.283v-1.886c0-0.997 0.027-1.987 1.514-1.987h1.506v-2.769c0-0.042-1.293-0.136-2.602-0.136-2.733 0-4.444 1.605-4.444 4.551v2.227h-3.020v3.873h3.020v8.715h4.026z"></path>
</symbol>
<symbol id="icon-logo-footer" viewBox="0 0 85 32">
<path fill="#fff" style="fill: var(--color1, #fff)" d="M18.616 7.758v-3.878c0-0.428-0.347-0.776-0.776-0.776h-0.776v-2.327c0-0.429-0.347-0.776-0.776-0.776-1.098 0-2.78-0.084-4.754 1.098-1.227-0.365-2.095-0.323-3.003-0.323-0.428 0-0.776 0.347-0.776 0.776v1.551h-0.776c-0.428 0-0.776 0.347-0.776 0.776v3.878c0 3.159 2.373 5.774 5.43 6.156v10.132c0 0.428 0.347 0.776 0.776 0.776s0.776-0.347 0.776-0.776v-2.715h1.163c2.352 0 4.266-1.913 4.266-4.266v-1.163c0-0.428-0.347-0.776-0.776-0.776h-1.939c-1.030 0-1.977 0.367-2.715 0.978v-2.19c3.052-0.378 5.429-2.98 5.429-6.156zM17.065 7.758c0 1.38-0.611 2.627-1.575 3.482 0.015-0.125 0.024-0.251 0.024-0.379 0-1.964-0.734-3.76-1.942-5.128 1.024-0.699 2.239-1.077 3.494-1.077v3.103zM15.513 1.553v1.708c-0.143 0.029-0.286 0.062-0.427 0.099-0.503-0.563-1.077-1.043-1.704-1.431 0.677-0.248 1.396-0.376 2.131-0.376zM9.308 2.328c1.541 0 3.037 0.563 4.201 1.638-0.384 0.198-0.752 0.43-1.101 0.692-0.902-0.678-1.956-1.164-3.1-1.397v-0.932zM7.757 7.758v-3.103c3.421 0 6.205 2.784 6.205 6.205 0 0.866-0.716 1.573-1.592 1.55-2.725-0.068-4.613-2.232-4.613-4.653zM15.901 16.678h1.163v0.388c0 1.497-1.218 2.715-2.715 2.715h-1.163v-0.388c0-1.497 1.218-2.715 2.715-2.715z"></path>
<path fill="#dd2242" style="fill: var(--color3, #dd2242)" d="M28.156 10.114h-3.143v1.976h3.713v1.537h-5.711v-8.291h5.723v1.543h-3.724v1.748h3.143v1.486zM32.785 8.093l1.355-2.756h2.283l-2.318 4.111 2.38 4.179h-2.306l-1.395-2.807-1.395 2.807h-2.3l2.374-4.179-2.312-4.111h2.278l1.355 2.756zM39.288 10.815v2.813h-1.999v-8.291h3.308q0.951 0 1.683 0.35t1.133 0.997 0.401 1.466q0 1.213-0.868 1.939t-2.383 0.726h-1.276zM39.288 9.272h1.31q0.581 0 0.885-0.29t0.305-0.82q0-0.581-0.313-0.928t-0.854-0.353h-1.332v2.392zM47.032 12.090h3.479v1.537h-5.478v-8.291h1.999v6.753zM58.163 9.653q0 1.213-0.45 2.147t-1.278 1.438-1.888 0.504-1.879-0.487q-0.82-0.487-1.279-1.392t-0.481-2.078v-0.467q0-1.219 0.447-2.15t1.281-1.438 1.899-0.507q1.053 0 1.879 0.501t1.284 1.426 0.464 2.121v0.381zM56.131 9.306q0-1.236-0.413-1.876t-1.182-0.641q-1.503 0-1.589 2.255l-0.006 0.609q0 1.219 0.404 1.873t1.201 0.655q0.757 0 1.168-0.643t0.416-1.851v-0.381zM62.428 10.701h-1.082v2.927h-1.999v-8.291h3.263q1.475 0 2.306 0.655t0.831 1.851q0 0.866-0.35 1.435t-1.096 0.922l1.731 3.342v0.085h-2.141l-1.464-2.927zM61.346 9.158h1.264q0.569 0 0.857-0.299t0.288-0.834-0.291-0.84-0.854-0.305h-1.264v2.278zM72.25 10.114h-3.143v1.976h3.713v1.537h-5.711v-8.291h5.723v1.543h-3.724v1.748h3.143v1.486z"></path>
<path fill="#fff" style="fill: var(--color1, #fff)" d="M25.144 24.335h-1.993v-8.291h1.993v8.291zM33.611 24.335h-1.987l-2.938-5.159v5.159h-1.999v-8.291h1.999l2.933 5.159v-5.159h1.993v8.291zM35.029 24.335v-8.291h2.671q1.099 0 1.976 0.498t1.369 1.406 0.498 2.036v0.381q0 1.139-0.481 2.041t-1.355 1.412-1.95 0.515h-2.727zM37.027 17.587v5.21h0.695q0.86 0 1.321-0.612t0.461-1.819v-0.359q0-1.201-0.461-1.811t-1.344-0.609h-0.672zM49.742 20.36q0 1.213-0.45 2.147t-1.278 1.438-1.888 0.504-1.879-0.487-1.278-1.392-0.481-2.078v-0.467q0-1.219 0.447-2.15t1.281-1.438 1.899-0.507q1.053 0 1.879 0.501t1.284 1.426 0.464 2.121v0.381zM47.709 20.013q0-1.236-0.413-1.876t-1.181-0.641q-1.503 0-1.589 2.255l-0.006 0.609q0 1.219 0.404 1.873t1.201 0.655q0.757 0 1.167-0.643t0.416-1.851v-0.381zM57.85 24.335h-1.987l-2.938-5.159v5.159h-1.999v-8.291h1.999l2.932 5.159v-5.159h1.993v8.291zM64.409 20.822h-3.143v1.976h3.713v1.537h-5.711v-8.291h5.723v1.543h-3.724v1.748h3.143v1.486zM70.223 22.131q0-0.438-0.311-0.683t-1.090-0.507-1.276-0.507q-1.611-0.791-1.611-2.175 0-0.689 0.402-1.216t1.136-0.82 1.651-0.293q0.894 0 1.603 0.319t1.102 0.908 0.393 1.347h-1.993q0-0.507-0.311-0.786t-0.84-0.279q-0.535 0-0.845 0.236t-0.311 0.601q0 0.319 0.342 0.578t1.202 0.535 1.412 0.595q1.344 0.774 1.344 2.135 0 1.088-0.82 1.708t-2.25 0.621q-1.007 0-1.825-0.362t-1.23-0.991-0.413-1.449h2.005q0 0.666 0.344 0.982t1.119 0.316q0.495 0 0.783-0.213t0.288-0.601zM75.529 24.335h-1.993v-8.291h1.993v8.291zM81.884 22.786h-2.739l-0.478 1.549h-2.135l3.040-8.291h1.879l3.063 8.291h-2.146l-0.484-1.549zM79.624 21.243h1.782l-0.894-2.876-0.888 2.876z"></path>
</symbol>
<symbol id="icon-facebook" viewBox="0 0 32 32">
<path d="M17.943 25.333v-9h2.915l0.476-4h-3.391v-1.948c0-1.030 0.028-2.052 1.563-2.052h1.555v-2.859c0-0.044-1.336-0.141-2.687-0.141-2.822 0-4.589 1.658-4.589 4.701v2.299h-3.118v4h3.118v9h4.158z"></path>
</symbol>
<symbol id="icon-linkedin" viewBox="0 0 32 32">
<path d="M7.334 8c-1.105 0-2-0.896-2-2s0.895-2 2.001-2c1.104 0 1.999 0.896 1.999 2s-0.895 2-2 2zM22.564 25.333h4.103v-9.012c0-3.812-2.142-5.655-5.043-5.655-2.9 0-4.188 2.35-4.188 2.35v-1.56h-4.103v13.876h4.103v-7.471c0-2.001 1.006-3.193 2.701-3.193 1.558 0 2.427 1.143 2.427 3.193v7.471zM9.333 25.333h-4v-13.333h4v13.333z"></path>
</symbol>
<symbol id="icon-google" viewBox="0 0 32 32">
<path d="M25.167 14.137h-8.97c0 0.934 0 2.798-0.006 3.732h5.198c-0.199 0.932-0.905 2.238-1.903 2.896-0.001-0.001-0.002 0.005-0.004 0.005-1.327 0.875-3.077 1.074-4.377 0.813-2.038-0.404-3.65-1.881-4.305-3.759 0.004-0.003 0.007-0.029 0.009-0.030-0.41-1.164-0.41-2.723 0-3.656h-0.001c0.528-1.715 2.189-3.279 4.229-3.707 1.641-0.348 3.493 0.029 4.855 1.303 0.181-0.177 2.506-2.448 2.681-2.633-4.653-4.214-12.102-2.73-14.89 2.71h-0.001c0 0 0.001 0-0.005 0.010-1.379 2.673-1.322 5.822 0.010 8.367-0.004 0.003-0.007 0.004-0.010 0.007 1.207 2.342 3.402 4.138 6.048 4.822 2.81 0.737 6.387 0.233 8.783-1.934 0.001 0 0.002 0.001 0.003 0.003 2.030-1.828 3.294-4.943 2.655-8.948z"></path>
</symbol>
<symbol id="icon-2" viewBox="0 0 47 32">
<path d="M21.697 18.854q0 6.306-2.832 9.726t-7.984 3.42q-5.194 0-8.037-3.442t-2.843-9.705v-5.686q0-6.306 2.832-9.726t8.005-3.42 8.016 3.442 2.843 9.726v5.665zM14.493 12.248q0-3.356-0.876-5.013t-2.779-1.657q-1.86 0-2.704 1.539t-0.909 4.66v7.952q0 3.484 0.876 5.098t2.779 1.614q1.838 0 2.715-1.571t0.898-4.927v-7.695zM47.156 31.573h-21.718v-4.703l10.004-10.517q3.698-4.211 3.698-6.691 0-2.009-0.876-3.057t-2.544-1.047q-1.646 0-2.672 1.4t-1.026 3.495h-7.225q0-2.864 1.432-5.291t3.976-3.794 5.686-1.368q5.045 0 7.77 2.33t2.725 6.691q0 1.838-0.684 3.58t-2.127 3.655-4.649 5.12l-4.019 4.639h12.249v5.558z"></path>
</symbol>
<symbol id="icon-01" viewBox="0 0 41 32">
<path d="M21.711 18.845q0 6.31-2.834 9.733t-7.989 3.422q-5.198 0-8.043-3.444t-2.845-9.711v-5.69q0-6.31 2.834-9.733t8.011-3.422 8.021 3.444 2.845 9.733v5.668zM14.503 12.235q0-3.358-0.877-5.016t-2.781-1.658q-1.861 0-2.706 1.54t-0.909 4.663v7.957q0 3.487 0.877 5.102t2.781 1.615q1.84 0 2.717-1.572t0.898-4.93v-7.701zM41.433 31.572h-7.23v-23.016l-7.102 2.075v-5.476l13.668-4.727h0.663v31.144z"></path>
</symbol>
<symbol id="icon-3" viewBox="0 0 47 32">
<path d="M21.697 18.854q0 6.306-2.832 9.726t-7.984 3.42q-5.194 0-8.037-3.442t-2.843-9.705v-5.686q0-6.306 2.832-9.726t8.005-3.42 8.016 3.442 2.843 9.726v5.665zM14.493 12.248q0-3.356-0.876-5.013t-2.779-1.657q-1.86 0-2.704 1.539t-0.909 4.66v7.952q0 3.484 0.876 5.098t2.779 1.614q1.838 0 2.715-1.571t0.898-4.927v-7.695zM32.021 12.997h3.399q4.040 0 4.040-3.955 0-1.539-0.962-2.512t-2.715-0.973q-1.432 0-2.49 0.834t-1.058 2.073h-7.204q0-2.458 1.368-4.382t3.794-3.003 5.333-1.079q5.194 0 8.166 2.373t2.971 6.52q0 2.009-1.229 3.794t-3.581 2.896q2.48 0.898 3.891 2.725t1.411 4.521q0 4.168-3.206 6.669t-8.422 2.501q-3.057 0-5.675-1.165t-3.965-3.228-1.347-4.692h7.247q0 1.432 1.154 2.48t2.843 1.047q1.902 0 3.035-1.058t1.133-2.704q0-2.351-1.176-3.335t-3.249-0.983h-3.506v-5.365z"></path>
</symbol>
<symbol id="icon-search" viewBox="0 0 32 32">
<path d="M19.5 18h-0.79l-0.28-0.27c0.98-1.14 1.57-2.62 1.57-4.23 0-3.59-2.91-6.5-6.5-6.5s-6.5 2.91-6.5 6.5c0 3.59 2.91 6.5 6.5 6.5 1.61 0 3.090-0.59 4.23-1.57l0.27 0.28v0.79l5 4.99 1.49-1.49-4.99-5zM13.5 18c-2.49 0-4.5-2.010-4.5-4.5s2.010-4.5 4.5-4.5c2.49 0 4.5 2.010 4.5 4.5s-2.010 4.5-4.5 4.5z"></path>
</symbol>
<symbol id="icon-menu" viewBox="0 0 32 32">
<path d="M7.002 22h18.009v-2h-18.009v2zM7.002 17h18.009v-2h-18.009v2zM7.002 10v2h18.009v-2h-18.009z"></path>
</symbol>
</defs>
</svg>
